<svg width="97" height="97" viewBox="0 0 97 97" fill="none" xmlns="http://www.w3.org/2000/svg">
<circle cx="48.5" cy="48.5" r="39.5" stroke="#FCE2E4" stroke-width="17" stroke-linecap="round" stroke-linejoin="round"/>
<path d="M76.4307 20.5693C82.8926 27.0312 86.9141 35.5338 87.8098 44.6283C88.7055 53.7228 86.4202 62.8466 81.3431 70.445C76.266 78.0434 68.7113 83.6464 59.9663 86.2991C51.2212 88.9519 41.8269 88.4904 33.384 84.9933C24.9411 81.4961 17.972 75.1797 13.6641 67.1202C9.35624 59.0607 7.97614 49.7569 9.75897 40.794C11.5418 31.831 16.3773 23.7635 23.4414 17.9661C30.5056 12.1687 39.3614 9.00001 48.5 9" stroke="#8C0D19" stroke-width="10" stroke-linecap="round" stroke-linejoin="round"/>
<path d="M48.5 9C54.8177 9 61.0432 10.5154 66.6541 13.419C72.265 16.3226 77.0976 20.5296 80.7463 25.6872C84.395 30.8447 86.7534 36.8021 87.6236 43.0596C88.4937 49.3171 87.8502 55.692 85.7471 61.6493C83.644 67.6067 80.1426 72.9727 75.5368 77.2969C70.9309 81.6212 65.3551 84.7777 59.2771 86.5014C53.1991 88.2251 46.7963 88.4657 40.6061 87.2032C34.4158 85.9406 28.6188 83.2117 23.7013 79.2453" stroke="#E8152A" stroke-width="10" stroke-linecap="round" stroke-linejoin="round"/>
<path d="M48.5 9C56.7103 9 64.7165 11.5584 71.4054 16.3193C78.0943 21.0803 83.1334 27.8073 85.822 35.5648C88.5106 43.3224 88.7151 51.7249 86.4071 59.6041C84.0991 67.4833 79.3932 74.4474 72.9438 79.5282" stroke="#F7931E" stroke-width="10" stroke-linecap="round" stroke-linejoin="round"/>
<path d="M25.916 61.5791H26.912V54.4631H29.456V53.5751H23.384V54.4631H25.916V61.5791ZM31.8929 61.7231C33.6569 61.7231 34.7609 60.3551 34.7609 58.6751C34.7609 56.9951 33.6569 55.6391 31.8929 55.6391C30.1289 55.6391 29.0249 56.9951 29.0249 58.6751C29.0249 60.3551 30.1289 61.7231 31.8929 61.7231ZM31.8929 60.9191C30.6569 60.9191 29.9609 59.8631 29.9609 58.6751C29.9609 57.4991 30.6569 56.4431 31.8929 56.4431C33.1289 56.4431 33.8129 57.4991 33.8129 58.6751C33.8129 59.8631 33.1289 60.9191 31.8929 60.9191ZM37.6921 61.7231C38.2201 61.7231 38.5441 61.5671 38.7721 61.3511L38.5081 60.6791C38.3881 60.8111 38.1481 60.9191 37.8961 60.9191C37.5001 60.9191 37.3081 60.6071 37.3081 60.1751V56.5751H38.4841V55.7831H37.3081V54.1991H36.4081V55.7831H35.4481V56.5751H36.4081V60.3671C36.4081 61.2311 36.8401 61.7231 37.6921 61.7231ZM43.3795 61.5791H44.2795V57.5951C44.2795 56.1911 43.2595 55.6391 42.0355 55.6391C41.0875 55.6391 40.3435 55.9511 39.7195 56.5991L40.1395 57.2231C40.6555 56.6711 41.2195 56.4191 41.9155 56.4191C42.7555 56.4191 43.3795 56.8631 43.3795 57.6431V58.6871C42.9115 58.1471 42.2515 57.8951 41.4595 57.8951C40.4755 57.8951 39.4315 58.5071 39.4315 59.8031C39.4315 61.0631 40.4755 61.7231 41.4595 61.7231C42.2395 61.7231 42.8995 61.4471 43.3795 60.9191V61.5791ZM43.3795 60.3551C43.0315 60.8351 42.4195 61.0751 41.7835 61.0751C40.9435 61.0751 40.3555 60.5471 40.3555 59.8151C40.3555 59.0711 40.9435 58.5431 41.7835 58.5431C42.4195 58.5431 43.0315 58.7831 43.3795 59.2631V60.3551ZM46.0836 61.5791H46.9836V53.5751H46.0836V61.5791ZM51.9087 61.5791H52.9047V58.3991H55.1247C56.7087 58.3991 57.6327 57.2951 57.6327 55.9871C57.6327 54.6791 56.7327 53.5751 55.1247 53.5751H51.9087V61.5791ZM56.6007 55.9871C56.6007 56.8871 55.9527 57.5111 55.0047 57.5111H52.9047V54.4631H55.0047C55.9527 54.4631 56.6007 55.0871 56.6007 55.9871ZM62.3053 61.5791H63.2053V57.5951C63.2053 56.1911 62.1853 55.6391 60.9613 55.6391C60.0133 55.6391 59.2693 55.9511 58.6453 56.5991L59.0653 57.2231C59.5813 56.6711 60.1453 56.4191 60.8413 56.4191C61.6813 56.4191 62.3053 56.8631 62.3053 57.6431V58.6871C61.8373 58.1471 61.1773 57.8951 60.3853 57.8951C59.4013 57.8951 58.3573 58.5071 58.3573 59.8031C58.3573 61.0631 59.4013 61.7231 60.3853 61.7231C61.1653 61.7231 61.8253 61.4471 62.3053 60.9191V61.5791ZM62.3053 60.3551C61.9573 60.8351 61.3453 61.0751 60.7093 61.0751C59.8693 61.0751 59.2812 60.5471 59.2812 59.8151C59.2812 59.0711 59.8693 58.5431 60.7093 58.5431C61.3453 58.5431 61.9573 58.7831 62.3053 59.2631V60.3551ZM65.4534 54.8111C65.7894 54.8111 66.0654 54.5351 66.0654 54.1991C66.0654 53.8631 65.7894 53.5991 65.4534 53.5991C65.1294 53.5991 64.8534 53.8631 64.8534 54.1991C64.8534 54.5351 65.1294 54.8111 65.4534 54.8111ZM65.0094 61.5791H65.9094V55.7831H65.0094V61.5791ZM71.9047 61.5791H72.8047V53.5751H71.9047V56.6591C71.4367 56.0231 70.7287 55.6391 69.9487 55.6391C68.4247 55.6391 67.3687 56.8391 67.3687 58.6871C67.3687 60.5711 68.4367 61.7231 69.9487 61.7231C70.7647 61.7231 71.4727 61.3031 71.9047 60.7151V61.5791ZM71.9047 60.0071C71.5807 60.5111 70.8847 60.9191 70.1647 60.9191C69.0007 60.9191 68.3047 59.9711 68.3047 58.6871C68.3047 57.4031 69.0007 56.4431 70.1647 56.4431C70.8847 56.4431 71.5807 56.8751 71.9047 57.3791V60.0071Z" fill="#B9B9B9"/>
<path d="M25.9112 40.855C25.9112 43.863 27.2712 46.359 30.5192 46.359C32.9512 46.359 34.5992 44.775 34.5992 42.695C34.5992 40.423 32.8872 39.255 30.9672 39.255C29.7992 39.255 28.7272 39.895 28.2312 40.615C28.2152 40.551 28.2152 40.471 28.2152 40.391C28.2152 38.695 29.2712 37.303 30.8872 37.303C31.8312 37.303 32.4392 37.607 33.0152 38.151L34.0392 36.439C33.2712 35.783 32.1832 35.335 30.8872 35.335C27.7352 35.335 25.9112 37.623 25.9112 40.855ZM32.2952 42.791C32.2952 43.543 31.6392 44.375 30.4072 44.375C28.9032 44.375 28.3272 43.191 28.2312 42.167C28.7432 41.543 29.5112 41.143 30.3112 41.143C31.3512 41.143 32.2952 41.639 32.2952 42.791ZM35.8536 46.167H43.8856V44.167H39.4376C42.3016 42.151 43.8056 40.567 43.8056 38.743C43.8056 36.615 41.9976 35.335 39.7256 35.335C38.2376 35.335 36.6536 35.879 35.6136 37.079L36.9096 38.583C37.6296 37.831 38.5576 37.351 39.7576 37.351C40.6536 37.351 41.5016 37.815 41.5016 38.743C41.5016 40.055 40.2216 41.159 35.8536 44.375V46.167ZM45.4473 45.047C45.4473 45.751 46.0393 46.343 46.7433 46.343C47.4473 46.343 48.0393 45.751 48.0393 45.047C48.0393 44.343 47.4473 43.751 46.7433 43.751C46.0393 43.751 45.4473 44.343 45.4473 45.047ZM49.5731 44.759C50.4851 45.751 51.8291 46.359 53.6851 46.359C56.2611 46.359 57.9571 44.935 57.9571 42.679C57.9571 40.519 56.3411 39.239 54.5331 39.239C53.5571 39.239 52.6931 39.623 52.1331 40.119V37.447H57.2371V35.495H49.9091V41.591L51.4931 42.023C52.1331 41.415 52.8531 41.143 53.7331 41.143C54.9491 41.143 55.6531 41.799 55.6531 42.775C55.6531 43.655 54.9331 44.375 53.6691 44.375C52.5491 44.375 51.5571 43.975 50.8211 43.223L49.5731 44.759ZM58.9394 38.023C58.9394 39.511 60.0114 40.647 61.6434 40.647C63.2914 40.647 64.3634 39.511 64.3634 38.023C64.3634 36.519 63.2914 35.335 61.6434 35.335C60.0114 35.335 58.9394 36.519 58.9394 38.023ZM60.6034 46.167H61.8034L68.6354 35.495H67.4194L60.6034 46.167ZM62.9074 38.023C62.9074 38.855 62.3794 39.399 61.6434 39.399C60.9234 39.399 60.3794 38.855 60.3794 38.023C60.3794 37.127 60.9234 36.599 61.6434 36.599C62.3794 36.599 62.9074 37.127 62.9074 38.023ZM64.8114 43.719C64.8114 45.207 65.8834 46.359 67.5154 46.359C69.1474 46.359 70.2354 45.207 70.2354 43.719C70.2354 42.215 69.1474 41.031 67.5154 41.031C65.8834 41.031 64.8114 42.215 64.8114 43.719ZM68.7954 43.719C68.7954 44.583 68.2514 45.111 67.5154 45.111C66.7794 45.111 66.2514 44.583 66.2514 43.719C66.2514 42.839 66.7794 42.295 67.5154 42.295C68.2514 42.295 68.7954 42.839 68.7954 43.719Z" fill="#4F4F4F"/>
</svg>
