<?xml version="1.0" encoding="UTF-8"?>
<svg width="469px" height="130px" viewBox="0 0 469 130" version="1.1" xmlns="http://www.w3.org/2000/svg" xmlns:xlink="http://www.w3.org/1999/xlink">
    <!-- Generator: sketchtool 59 (101010) - https://sketch.com -->
    <title>DA32322B-50F2-4109-A002-563F4AFD9C24</title>
    <desc>Created with sketchtool.</desc>
    <defs>
        <rect id="path-1" x="0" y="0" width="469" height="130"></rect>
    </defs>
    <g id="Page-1" stroke="none" stroke-width="1" fill="none" fill-rule="evenodd">
        <g id="Desktop_version_4" transform="translate(-971.000000, -750.000000)">
            <g id="Group-5" transform="translate(971.000000, 750.000000)">
                <mask id="mask-2" fill="white">
                    <use xlink:href="#path-1"></use>
                </mask>
                <use id="Mask" fill="#D8D8D8" opacity="0" xlink:href="#path-1"></use>
                <g mask="url(#mask-2)">
                    <g transform="translate(235.000000, 93.500000) scale(1, -1) translate(-235.000000, -93.500000) translate(-5.000000, 0.000000)">
                        <polygon id="Polygon" stroke="#231F20" stroke-width="1.10344828" fill="none" points="152.275862 0 177.121832 14.3448276 177.121832 43.0344828 152.275862 57.3793103 127.429892 43.0344828 127.429892 14.3448276"></polygon>
                        <polygon id="Polygon-Copy-2" stroke="none" fill="#231F20" fill-rule="evenodd" points="177.655172 43.0344828 202.501143 57.3793103 202.501143 86.0689655 177.655172 100.413793 152.809202 86.0689655 152.809202 57.3793103"></polygon>
                        <polygon id="Polygon-Copy-4" stroke="#231F20" stroke-width="1.10344828" fill="none" points="276.965517 43.0344828 301.811487 57.3793103 301.811487 86.0689655 276.965517 100.413793 252.119547 86.0689655 252.119547 57.3793103"></polygon>
                        <polygon id="Polygon-Copy-6" stroke="none" fill="#550003" fill-rule="evenodd" points="326.62069 43.0344828 351.46666 57.3793103 351.46666 86.0689655 326.62069 100.413793 301.774719 86.0689655 301.774719 57.3793103"></polygon>
                        <polygon id="Polygon-Copy-8" stroke="#231F20" stroke-width="1.10344828" fill="none" points="350.896552 0 375.742522 14.3448276 375.742522 43.0344828 350.896552 57.3793103 326.050582 43.0344828 326.050582 14.3448276"></polygon>
                        <polygon id="Polygon-Copy-9" stroke="#231F20" stroke-width="1.10344828" fill="none" points="376.275862 43.0344828 401.121832 57.3793103 401.121832 86.0689655 376.275862 100.413793 351.429892 86.0689655 351.429892 57.3793103"></polygon>
                        <polygon id="Polygon-Copy-13" stroke="#231F20" stroke-width="1.10344828" fill="none" points="425.931034 43.0344828 450.777005 57.3793103 450.777005 86.0689655 425.931034 100.413793 401.085064 86.0689655 401.085064 57.3793103"></polygon>
                        <polygon id="Polygon-Copy-14" stroke="none" fill="#550003" fill-rule="evenodd" points="401.655172 86.0689655 426.501143 100.413793 426.501143 129.103448 401.655172 143.448276 376.809202 129.103448 376.809202 100.413793"></polygon>
                        <polygon id="Polygon-Copy-15" stroke="none" fill="#231F20" fill-rule="evenodd" points="451.310345 86.0689655 476.156315 100.413793 476.156315 129.103448 451.310345 143.448276 426.464375 129.103448 426.464375 100.413793"></polygon>
                        <polygon id="Polygon-Copy-16" stroke="#231F20" stroke-width="1.10344828" fill="none" points="377.37931 129.103448 402.225281 143.448276 402.225281 172.137931 377.37931 186.482759 352.53334 172.137931 352.53334 143.448276"></polygon>
                        <polygon id="Polygon-Copy-11" stroke="none" fill="#231F20" fill-rule="evenodd" points="302.344828 86.0689655 327.190798 100.413793 327.190798 129.103448 302.344828 143.448276 277.498857 129.103448 277.498857 100.413793"></polygon>
                        <polygon id="Polygon-Copy-5" stroke="#231F20" stroke-width="1.10344828" fill="none" points="252.689655 86.0689655 277.535625 100.413793 277.535625 129.103448 252.689655 143.448276 227.843685 129.103448 227.843685 100.413793"></polygon>
                        <polygon id="Polygon-Copy-17" stroke="none" fill="#550003" fill-rule="evenodd" points="202.789655 85.8206897 227.635625 100.165517 227.635625 128.855172 202.789655 143.2 177.943685 128.855172 177.943685 100.165517"></polygon>
                        <polygon id="Polygon-Copy-19" stroke="none" fill="#231F20" fill-rule="evenodd" points="78.3448276 43.0344828 103.190798 57.3793103 103.190798 86.0689655 78.3448276 100.413793 53.4988574 86.0689655 53.4988574 57.3793103"></polygon>
                        <polygon id="Polygon-Copy-20" stroke="#231F20" stroke-width="1.10344828" fill="none" points="153.37931 86.0689655 178.225281 100.413793 178.225281 129.103448 153.37931 143.448276 128.53334 129.103448 128.53334 100.413793"></polygon>
                        <polygon id="Polygon-Copy-21" stroke="#231F20" stroke-width="1.10344828" fill="none" points="127.689655 43.6206897 152.535625 57.9655172 152.535625 86.6551724 127.689655 101 102.843685 86.6551724 102.843685 57.9655172"></polygon>
                        <polygon id="Polygon-Copy-26" stroke="#231F20" stroke-width="1.10344828" fill="none" points="228.413793 129.103448 253.259763 143.448276 253.259763 172.137931 228.413793 186.482759 203.567823 172.137931 203.567823 143.448276"></polygon>
                        <polygon id="Polygon-Copy-22" stroke="none" fill="#550003" fill-rule="evenodd" points="54.0689655 86.0689655 78.9149357 100.413793 78.9149357 129.103448 54.0689655 143.448276 29.2229953 129.103448 29.2229953 100.413793"></polygon>
                        <polygon id="Polygon-Copy-23" stroke="#231F20" stroke-width="1.10344828" fill="none" points="28.6896552 129.103448 53.5356254 143.448276 53.5356254 172.137931 28.6896552 186.482759 3.84368497 172.137931 3.84368497 143.448276"></polygon>
                        <polygon id="Polygon-Copy-24" stroke="#231F20" stroke-width="1.10344828" fill="none" points="28.6896552 43.6206897 53.5356254 57.9655172 53.5356254 86.6551724 28.6896552 101 3.84368497 86.6551724 3.84368497 57.9655172"></polygon>
                        <polygon id="Polygon-Copy-7" stroke="none" fill="#550003" fill-rule="evenodd" points="301.241379 0 326.08735 14.3448276 326.08735 43.0344828 301.241379 57.3793103 276.395409 43.0344828 276.395409 14.3448276"></polygon>
                        <polygon id="Polygon-Copy" stroke="#231F20" stroke-width="1.10344828" fill="none" points="201.931034 0 226.777005 14.3448276 226.777005 43.0344828 201.931034 57.3793103 177.085064 43.0344828 177.085064 14.3448276"></polygon>
                    </g>
                </g>
            </g>
        </g>
    </g>
</svg>