<svg width="76" height="26" viewBox="0 0 76 26" fill="none" xmlns="http://www.w3.org/2000/svg">
<g clip-path="url(#clip0_1600_4171)">
<path d="M0 25.9988V0H7.26252L10.8175 16.8366L14.3662 0H21.6337V25.9988H17.0168L17.1193 2.93897L12.296 25.9988H9.3327L4.49936 2.93897L4.61319 25.9988H0Z" fill="white"/>
<path d="M30.2371 6.46436H25.759V25.9989H30.2371V6.46436Z" fill="white"/>
<path d="M30.2371 0H25.759V4.045H30.2371V0Z" fill="#D21113"/>
<path d="M34.3838 25.9988V0H47.9219V4.24712H39.2059V10.3987H47.4328V14.548H39.2059V25.9925L34.3838 25.9988Z" fill="white"/>
<path d="M55.4183 6.46436H50.9402V25.9989H55.4183V6.46436Z" fill="white"/>
<path d="M55.4183 0H50.9402V4.045H55.4183V0Z" fill="#D21113"/>
<path d="M57.6636 25.9988L63.9954 12.7288L57.9725 0H63.4038L66.8537 8.1892L70.3674 0H75.7461L69.5043 12.7288L75.9174 25.9988H70.4662L66.7136 17.3212L62.8959 25.9988H57.6636Z" fill="white"/>
</g>
<defs>
<clipPath id="clip0_1600_4171">
<rect width="75.92" height="26" fill="white"/>
</clipPath>
</defs>
</svg>
