<?xml version="1.0" encoding="UTF-8"?>
<svg width="16px" height="20px" viewBox="0 0 16 20" version="1.1" xmlns="http://www.w3.org/2000/svg" xmlns:xlink="http://www.w3.org/1999/xlink">
    <!-- Generator: sketchtool 59 (101010) - https://sketch.com -->
    <title>615949F4-D25C-45E6-BF8E-C10E3F74770A</title>
    <desc>Created with sketchtool.</desc>
    <g id="Page-1" stroke="none" stroke-width="1" fill="none" fill-rule="evenodd">
        <g id="Desktop_version_4" transform="translate(-1060.000000, -462.000000)" fill="#550003">
            <g id="Group-3" transform="translate(1042.000000, 375.000000)">
                <g id="Group-2" transform="translate(0.000000, 70.000000)">
                    <path d="M22.9944058,17.6385545 C25.0526368,16.7150964 27.6117423,16.7702101 29.565866,17.9546603 C30.4584156,18.4965663 31.18752,19.2743855 31.5694529,20.2580518 C31.7875767,20.805021 31.8074691,21.3772171 31.8074691,21.9593604 L31.8074691,21.9593604 L31.8074691,25.2262996 C31.8074691,25.262155 31.8049937,25.2972104 31.8002171,25.3313551 L33.2164287,25.3319506 C33.6478202,25.3319506 34,25.6882983 34,26.1248252 L34,26.1248252 L34,28.9050168 C34,33.3767042 30.4192184,37 26,37 C21.5807816,37 18,33.3765249 18,28.9050168 L18,28.9050168 L18,26.1248252 C18,25.6883118 18.3521665,25.3319506 18.7835713,25.3319506 L18.7835713,25.3319506 L20.1603971,25.3312032 C20.1551212,25.2966261 20.1523822,25.2616887 20.1523822,25.2266715 L20.1523822,25.2266715 L20.1523822,21.6735447 C20.1523822,19.8316739 21.3774015,18.3663234 22.9944058,17.6385545 Z M26.2875235,28.8027734 L25.7220414,28.8027734 C25.067508,28.8027734 24.5317835,29.3397505 24.5317835,30.0071631 L24.5317835,30.0071631 L24.5317835,33.0678758 L27.4777815,33.0678758 L27.4777815,30.0071631 C27.4777815,29.3448585 26.9471051,28.8027734 26.2875235,28.8027734 L26.2875235,28.8027734 Z M30.294594,21.2116387 C30.2748752,21.1162473 30.2499661,21.0208559 30.2252306,20.9305412 C30.2003219,20.8402221 30.165727,20.7499074 30.1309585,20.6595927 L30.1523956,20.7205477 C30.1520847,20.7309552 30.0758166,20.5592431 30.0565779,20.5241207 C30.0019205,20.4238274 29.9375698,20.3184573 29.8730508,20.2230659 C29.8483148,20.1880575 29.8284229,20.1579538 29.8036874,20.1227725 L29.832,20.164 L29.837,20.173 L29.8309305,20.1648888 C29.8169844,20.1456082 29.7946706,20.1146731 29.7801893,20.0961648 L29.7689189,20.0826905 C29.6400492,19.9270864 29.4912924,19.7765589 29.337514,19.6410869 C29.2928865,19.5959296 29.2434146,19.5556711 29.19377,19.5155892 L29.235,19.55 C29.2193218,19.5379655 29.1957388,19.5190418 29.1785137,19.5060099 L29.1640177,19.4954606 C29.0846199,19.4403245 29.0052222,19.3850182 28.9209844,19.3298822 C28.7324446,19.2094656 28.5342159,19.0990188 28.3307929,19.0036274 C28.2910054,18.9834966 28.2513951,18.9635432 28.2067676,18.9434146 L28.239,18.958 L28.2305861,18.9552664 L28.1918915,18.9383388 C28.147264,18.9232861 28.1026366,18.9031575 28.0580091,18.8881047 C27.9488582,18.8480241 27.8346946,18.8079417 27.7207036,18.7727604 C27.4875142,18.697322 27.2495113,18.6421859 27.006478,18.5970286 C26.7684619,18.5518703 26.6245407,18.5368176 26.2922524,18.5217649 C26.0689379,18.5117879 25.8458049,18.5117879 25.6226631,18.5217649 C25.4787464,18.5268407 25.3398468,18.5418934 25.1961027,18.5569462 L25.1961027,18.5569462 L25.156,18.56 L25.1513883,18.5617502 L25.091969,18.5719989 L25.091969,18.5719989 L24.9432078,18.5970281 C24.7051916,18.6423602 24.4621539,18.702573 24.2289822,18.77276 C24.0900826,18.8130153 23.9561957,18.8630746 23.8223133,18.9133087 C23.7826985,18.9283614 23.7380711,18.9434142 23.6934436,18.9635428 L23.737,18.945 L23.741,18.943 L23.7319718,18.9475594 L23.7319718,18.9475594 L23.71,18.956 L23.7357535,18.9468765 C23.7143165,18.9566413 23.6564407,18.9819345 23.6309927,18.9932855 L23.619063,18.9987241 C23.4156488,19.0941155 23.2174157,19.2045578 23.0288715,19.3249789 C22.9247377,19.3902684 22.8256212,19.4606301 22.7313491,19.5308171 L22.7313491,19.5308171 L22.717,19.54 L22.7477623,19.5142725 C22.7997939,19.4668716 22.6868522,19.561269 22.7081363,19.5477347 L22.715,19.542 L22.7066135,19.5509457 C22.6868084,19.5685372 22.6669593,19.5860844 22.64711,19.6036314 L22.5876054,19.6563158 C22.4388442,19.7867111 22.2999446,19.9272598 22.1759194,20.0777872 L22.1759194,20.0777872 L22.13,20.136 L22.1428456,20.122194 C22.1484779,20.1162402 22.1458626,20.1212194 22.1346675,20.1368066 L22.1113986,20.1681028 C22.0915071,20.2031111 22.0667721,20.2332148 22.0468797,20.2683962 C21.997235,20.3536341 21.9427459,20.4390513 21.8981185,20.5242892 C21.8782269,20.5594678 21.7543744,20.8403906 21.8237379,20.6597612 L21.7728404,20.7933334 L21.7728404,20.7933334 L21.7294657,20.9307097 C21.6946955,21.041152 21.6699604,21.1515989 21.650068,21.2669432 L21.655,21.243 L21.654,21.254 L21.654,21.248 L21.650068,21.2669432 C21.6494625,21.2732225 21.6490084,21.2800515 21.6486871,21.2868808 L21.648,21.303 L21.654,21.254 L21.6532298,21.2911816 C21.6514207,21.3300124 21.649803,21.3391811 21.6488787,21.3335202 L21.648,21.306 L21.6457651,21.3298454 L21.6457651,21.3298454 L21.6402081,21.4176458 L21.6401714,25.2266715 C21.6401714,25.262512 21.6376973,25.2975551 21.632923,25.3316897 L30.3276605,25.3317634 C30.3222913,25.2968821 30.3195027,25.2616315 30.3195027,25.2262996 L30.3195027,25.2262996 L30.3195027,21.7936163 C30.3195027,21.6581443 30.3195027,21.5226678 30.3144864,21.3871958 C30.3116996,21.3621069 30.3028265,21.2843469 30.3005913,21.2546069 L30.3,21.248 L30.3045402,21.2693114 L30.3045402,21.2693114 L30.313,21.32 L30.3064853,21.2746857 C30.3023609,21.2490326 30.3005201,21.2407291 30.3001485,21.2433308 Z M28.215,18.947 L28.239,18.958 L28.2514039,18.9639942 C28.2593273,18.9671336 28.2553443,18.9649688 28.2394776,18.9578247 L28.215,18.947 Z M25.135248,18.562735 L25.156,18.56 L25.1745621,18.5568186 C25.1916022,18.551366 25.053612,18.5696571 25.135248,18.562735 Z" id="Combined-Shape"></path>
                </g>
            </g>
        </g>
    </g>
</svg>